# xmcd
#
# Track frame offsets:
#	150
#	11460
#	29127
#	42045
#
# Disc length: 750 seconds
#
# Revision: 0
# Processed by: cddbd v1.5.1PL0 Copyright (c) Steve Scherf et al.
# Submitted via: audiograbber 1.83.01
#
DISCID=2802ec04
DTITLE=Sum41 - Over my Head MCD
DYEAR=2003
DGENRE=Punk Rock
TTITLE0=Over my Head (Better off dead)
TTITLE1=Mr Amsterdam (live)
TTITLE2=Still Waiting (live)
TTITLE3=The Hell Song (live)
EXTD=
EXTT0=
EXTT1=
EXTT2=
EXTT3=
PLAYORDER=
